<svg width="200" height="200" viewBox="0 0 200 200" fill="none" xmlns="http://www.w3.org/2000/svg">
  <path d="M0 0H100V100H0V0Z" fill="none" stroke="#D4AF37" stroke-width="0.5" stroke-opacity="0.3"/>
  <path d="M100 0H200V100H100V0Z" fill="none" stroke="#D4AF37" stroke-width="0.5" stroke-opacity="0.3"/>
  <path d="M0 100H100V200H0V100Z" fill="none" stroke="#D4AF37" stroke-width="0.5" stroke-opacity="0.3"/>
  <path d="M100 100H200V200H100V100Z" fill="none" stroke="#D4AF37" stroke-width="0.5" stroke-opacity="0.3"/>
  
  <path d="M50 0C50 27.6 27.6 50 0 50" fill="none" stroke="#D4AF37" stroke-width="0.5" stroke-opacity="0.3"/>
  <path d="M100 50C72.4 50 50 27.6 50 0" fill="none" stroke="#D4AF37" stroke-width="0.5" stroke-opacity="0.3"/>
  <path d="M50 100C50 72.4 72.4 50 100 50" fill="none" stroke="#D4AF37" stroke-width="0.5" stroke-opacity="0.3"/>
  <path d="M0 50C27.6 50 50 72.4 50 100" fill="none" stroke="#D4AF37" stroke-width="0.5" stroke-opacity="0.3"/>
  
  <path d="M150 0C150 27.6 127.6 50 100 50" fill="none" stroke="#D4AF37" stroke-width="0.5" stroke-opacity="0.3"/>
  <path d="M200 50C172.4 50 150 27.6 150 0" fill="none" stroke="#D4AF37" stroke-width="0.5" stroke-opacity="0.3"/>
  <path d="M150 100C150 72.4 172.4 50 200 50" fill="none" stroke="#D4AF37" stroke-width="0.5" stroke-opacity="0.3"/>
  <path d="M100 50C127.6 50 150 72.4 150 100" fill="none" stroke="#D4AF37" stroke-width="0.5" stroke-opacity="0.3"/>
  
  <path d="M50 100C50 127.6 27.6 150 0 150" fill="none" stroke="#D4AF37" stroke-width="0.5" stroke-opacity="0.3"/>
  <path d="M100 150C72.4 150 50 127.6 50 100" fill="none" stroke="#D4AF37" stroke-width="0.5" stroke-opacity="0.3"/>
  <path d="M50 200C50 172.4 72.4 150 100 150" fill="none" stroke="#D4AF37" stroke-width="0.5" stroke-opacity="0.3"/>
  <path d="M0 150C27.6 150 50 172.4 50 200" fill="none" stroke="#D4AF37" stroke-width="0.5" stroke-opacity="0.3"/>
  
  <path d="M150 100C150 127.6 127.6 150 100 150" fill="none" stroke="#D4AF37" stroke-width="0.5" stroke-opacity="0.3"/>
  <path d="M200 150C172.4 150 150 127.6 150 100" fill="none" stroke="#D4AF37" stroke-width="0.5" stroke-opacity="0.3"/>
  <path d="M150 200C150 172.4 172.4 150 200 150" fill="none" stroke="#D4AF37" stroke-width="0.5" stroke-opacity="0.3"/>
  <path d="M100 150C127.6 150 150 172.4 150 200" fill="none" stroke="#D4AF37" stroke-width="0.5" stroke-opacity="0.3"/>
  
  <circle cx="50" cy="50" r="10" fill="none" stroke="#D4AF37" stroke-width="0.5" stroke-opacity="0.3"/>
  <circle cx="150" cy="50" r="10" fill="none" stroke="#D4AF37" stroke-width="0.5" stroke-opacity="0.3"/>
  <circle cx="50" cy="150" r="10" fill="none" stroke="#D4AF37" stroke-width="0.5" stroke-opacity="0.3"/>
  <circle cx="150" cy="150" r="10" fill="none" stroke="#D4AF37" stroke-width="0.5" stroke-opacity="0.3"/>
</svg>
