<svg width="48" height="48" viewBox="0 0 48 48" fill="none" xmlns="http://www.w3.org/2000/svg">
  <path d="M0 0C0 26.51 21.49 48 48 48V42C24.8 42 6 23.2 6 0H0Z" fill="#D4AF37" fill-opacity="0.3"/>
  <path d="M0 12C0 32.33 15.67 48 36 48V42C18.98 42 6 29.02 6 12H0Z" fill="#D4AF37" fill-opacity="0.2"/>
  <path d="M0 24C0 37.25 10.75 48 24 48V42C14.06 42 6 33.94 6 24H0Z" fill="#D4AF37" fill-opacity="0.1"/>
  <path d="M2 0C2 2.76 4.24 5 7 5C9.76 5 12 2.76 12 0H2Z" fill="#D4AF37" fill-opacity="0.3"/>
  <path d="M14 0C14 2.76 16.24 5 19 5C21.76 5 24 2.76 24 0H14Z" fill="#D4AF37" fill-opacity="0.3"/>
  <path d="M26 0C26 2.76 28.24 5 31 5C33.76 5 36 2.76 36 0H26Z" fill="#D4AF37" fill-opacity="0.3"/>
  <path d="M38 0C38 2.76 40.24 5 43 5C45.76 5 48 2.76 48 0H38Z" fill="#D4AF37" fill-opacity="0.3"/>
</svg>
