<svg width="800" height="600" viewBox="0 0 800 600" xmlns="http://www.w3.org/2000/svg">
  <rect width="800" height="600" fill="none"/>
  <circle cx="100" cy="100" r="1" fill="#D4AF37" opacity="0.6"/>
  <circle cx="200" cy="150" r="1.5" fill="#D4AF37" opacity="0.7"/>
  <circle cx="300" cy="50" r="1" fill="#D4AF37" opacity="0.5"/>
  <circle cx="400" cy="200" r="2" fill="#D4AF37" opacity="0.8"/>
  <circle cx="500" cy="120" r="1" fill="#D4AF37" opacity="0.6"/>
  <circle cx="600" cy="80" r="1.5" fill="#D4AF37" opacity="0.7"/>
  <circle cx="700" cy="180" r="1" fill="#D4AF37" opacity="0.5"/>
  <circle cx="150" cy="250" r="1" fill="#D4AF37" opacity="0.6"/>
  <circle cx="250" cy="300" r="1.5" fill="#D4AF37" opacity="0.7"/>
  <circle cx="350" cy="350" r="1" fill="#D4AF37" opacity="0.5"/>
  <circle cx="450" cy="400" r="2" fill="#D4AF37" opacity="0.8"/>
  <circle cx="550" cy="450" r="1" fill="#D4AF37" opacity="0.6"/>
  <circle cx="650" cy="500" r="1.5" fill="#D4AF37" opacity="0.7"/>
  <circle cx="750" cy="550" r="1" fill="#D4AF37" opacity="0.5"/>
  <circle cx="50" cy="350" r="1" fill="#D4AF37" opacity="0.6"/>
  <circle cx="150" cy="400" r="1.5" fill="#D4AF37" opacity="0.7"/>
  <circle cx="250" cy="450" r="1" fill="#D4AF37" opacity="0.5"/>
  <circle cx="350" cy="500" r="2" fill="#D4AF37" opacity="0.8"/>
  <circle cx="450" cy="550" r="1" fill="#D4AF37" opacity="0.6"/>
  <circle cx="550" cy="300" r="1.5" fill="#D4AF37" opacity="0.7"/>
  <circle cx="650" cy="350" r="1" fill="#D4AF37" opacity="0.5"/>
  <circle cx="750" cy="400" r="1" fill="#D4AF37" opacity="0.6"/>
</svg>
